# xmcd
#
# Track frame offsets: 
#        150
#        2162
#        27152
#        49100
#        72905
#        93912
#        97447
#        121740
#        146315
#        167750
#        193205
#
# Disc length: 2727 seconds
#
# Revision: 2
# Processed by: cddbd v1.5.2PL0 Copyright (c) Steve Scherf et al.
# Submitted via: ExactAudioCopy v0.99pb5
#
DISCID=930aa50b
DTITLE=James Brown - I'm Real
DYEAR=1988
DGENRE=R&B
TTITLE0=Tribute
TTITLE1=I'm Real
TTITLE2=Static
TTITLE3=Time to get Busy
TTITLE4=You and me
TTITLE5=Interview
TTITLE6=She looks all types a' good
TTITLE7=Keep keepin'
TTITLE8=Can't get enuf
TTITLE9=It's your money $
TTITLE10=Godfather runnin' the joint
EXTD=
EXTT0=
EXTT1=
EXTT2=
EXTT3=
EXTT4=
EXTT5=
EXTT6=
EXTT7=
EXTT8=
EXTT9=
EXTT10=
PLAYORDER=
